Coordinates
version=1
nRows=10
nColumns=28
inDegrees=yes

Units are S.I. units (second, meters, Newtons, ...)
Angles are in degrees.

endheader
time	pelvis_tilt	pelvis_list	pelvis_rotation	pelvis_tx	pelvis_ty	pelvis_tz	hip_flexion_r	hip_adduction_r	hip_rotation_r	knee_angle_r	ankle_angle_r	subtalar_angle_r	mtp_angle_r	hip_flexion_l	hip_adduction_l	hip_rotation_l	knee_angle_l	socket_flexion	socket_adduction	socket_rotation	socket_tx	socket_ty	socket_tz	foot_flex	lumbar_extension	lumbar_bending	lumbar_rotation
      0.65416667	     -0.41465482	     -0.68398241	      7.75694066	     -0.04050315	      0.98204162	      0.26851410	     28.03226191	      3.03076753	     -0.07192379	     -9.35698663	      9.67240802	    -30.29436780	     -4.32084672	    -20.42824799	     -0.32325997	     16.38346206	     -5.22071813	      0.00000000	      0.00000000	      0.00000000	      0.00000000	      0.00000000	      0.00000000	     10.34712921	    -11.25360674	     -0.57904266	     -2.18589536
      0.65833333	     -0.42416801	     -0.76193425	      7.94157531	     -0.03450783	      0.98107436	      0.26807546	     28.10343178	      3.16561753	      0.17599927	     -9.92612858	      9.52095639	    -30.28578473	     -4.31846286	    -20.64169116	     -0.46457217	     16.50305550	     -5.45175508	      0.00000000	      0.00000000	      0.00000000	      0.00000000	      0.00000000	      0.00000000	     10.34207293	    -11.20339743	     -0.36601314	     -2.19093391
      0.66250000	     -0.39040320	     -0.84972488	      7.99562549	     -0.02839526	      0.98005700	      0.26783520	     28.27612823	      3.36022784	      0.19661699	    -10.76595124	      9.18888286	    -30.40038257	     -4.21522504	    -20.93618777	     -0.57939277	     16.42036535	     -5.65149689	      0.00000000	      0.00000000	      0.00000000	      0.00000000	      0.00000000	      0.00000000	     10.38653298	    -11.16812158	     -0.14612037	     -2.28373566
      0.66666667	     -0.38636075	     -0.93180584	      8.16664006	     -0.02238983	      0.97914941	      0.26743698	     28.33692241	      3.50799281	      0.43579829	    -11.34181840	      8.99835049	    -30.38004362	     -4.17546868	    -21.13312542	     -0.71872485	     16.53295685	     -5.93819887	      0.00000000	      0.00000000	      0.00000000	      0.00000000	      0.00000000	      0.00000000	     10.36246336	    -11.12896580	      0.06956692	     -2.29126265
      0.67083333	     -0.24214977	     -1.03164198	      8.25651691	     -0.01620250	      0.97831156	      0.26704660	     28.40011974	      3.65655790	      0.14767123	    -12.11501840	      7.33273434	    -31.05569277	      0.10349612	    -21.51996080	     -0.86072441	     16.45001647	     -6.18128998	      0.00000000	      0.00000000	      0.00000000	      0.00000000	      0.00000000	      0.00000000	     10.38280630	    -11.20625048	      0.33689167	     -2.43531331
      0.67500000	     -0.23096698	     -1.12388692	      8.39873608	     -0.01015922	      0.97748307	      0.26665013	     28.47119307	      3.81626091	      0.36260065	    -12.73242917	      7.15069069	    -31.02167050	      0.11203568	    -21.69562739	     -0.99441243	     16.54928035	     -6.52238228	      0.00000000	      0.00000000	      0.00000000	      0.00000000	      0.00000000	      0.00000000	     10.31845957	    -11.17677346	      0.57764667	     -2.43817605
      0.67916667	     -0.17448253	     -1.23391860	      8.37410311	     -0.00394441	      0.97658586	      0.26648259	     28.67501031	      4.04162653	      0.26832543	    -13.67414724	      6.65322334	    -31.00909723	      0.20630619	    -21.96868891	     -1.09256189	     16.37113087	     -6.81523664	      0.00000000	      0.00000000	      0.00000000	      0.00000000	      0.00000000	      0.00000000	     10.30513849	    -11.14893434	      0.82738144	     -2.50875673
      0.68333333	     -0.15092951	     -1.33604498	      8.51793310	      0.00210408	      0.97585342	      0.26611898	     28.72807132	      4.20724263	      0.47865399	    -14.28074529	      6.42337256	    -30.95728877	      0.25427031	    -22.11147885	     -1.23245386	     16.44881291	     -7.23082082	      0.00000000	      0.00000000	      0.00000000	      0.00000000	      0.00000000	      0.00000000	     10.19567224	    -11.13056941	      1.07758449	     -2.49918807
      0.68750000	      0.04194240	     -1.46835022	      8.53791549	      0.00846293	      0.97521974	      0.26564205	     28.81340601	      4.34547397	     -0.10000484	    -15.19340958	      4.72536979	    -31.27349088	      5.13481408	    -22.50672917	     -1.36294273	     16.28526054	     -7.57023145	      0.00000000	      0.00000000	      0.00000000	      0.00000000	      0.00000000	      0.00000000	     10.13404338	    -11.23704005	      1.39629314	     -2.53211891
      0.69166667	      0.09263506	     -1.58991001	      8.55723323	      0.01465584	      0.97452360	      0.26539817	     28.94374091	      4.55009252	     -0.07714390	    -16.00164207	      4.34112323	    -31.22092402	      5.14541990	    -22.68431350	     -1.47301571	     16.20212087	     -8.00266769	      0.00000000	      0.00000000	      0.00000000	      0.00000000	      0.00000000	      0.00000000	     10.02697223	    -11.21777807	      1.66524653	     -2.56482310
